<?xml version="1.0" encoding="utf-8"?>
<!-- Generator: Adobe Illustrator 21.1.0, SVG Export Plug-In . SVG Version: 6.00 Build 0)  -->
<svg version="1.1" id="レイヤー_1" xmlns="http://www.w3.org/2000/svg" xmlns:xlink="http://www.w3.org/1999/xlink" x="0px"
	 y="0px" viewBox="0 0 270 270" style="enable-background:new 0 0 270 270;" xml:space="preserve">
<style type="text/css">
	.st0{fill:#DD5E72;}
	.st1{fill:#FFFFFF;}
</style>
<path class="st0" d="M240.2,106.8C240.2,48.7,193.1,1.6,135,1.6S29.8,48.7,29.8,106.8c0,52,37.7,95.2,87.3,103.7l17.9,57.9
	l17.9-57.9C202.5,202,240.2,158.8,240.2,106.8z"/>
<g>
	<path class="st1" d="M141.9,118.5c-1.1,0.6-2.7,1.3-5,1.3c-2,0-3.8-0.8-4.9-2.6c-0.6-1-1.1-2.9-1.1-3.7c7.2,0.1,12.7-1.2,11.8-6.3
		c-0.5-2.8-3-5-6.7-5c-6.3,0-9.4,6.6-8.3,12.5c0.8,4.3,3.8,7.9,8.9,7.9c2.6,0,4.9-0.7,6.2-1.5L141.9,118.5z M136.1,104.7
		c1.8,0,3.1,0.9,3.4,2.5l0,0c0.6,3-3.4,3.7-8.6,3.7C131.1,107.8,132.9,104.7,136.1,104.7 M157.6,97.9l-3.3,1.1v3.6h-2.8v2.6h2.8v9.9
		c0,1.4,0,2.5,0.3,3.7c0.4,2,1.9,3.8,4.8,3.8c1,0,2-0.1,2.5-0.4l-0.3-2.6c-0.4,0.1-0.9,0.2-1.5,0.2c-1.3,0-2-0.7-2.2-1.9
		c-0.2-1-0.2-2-0.2-3.1v-9.5h4.7v-2.6h-4.7L157.6,97.9z M113.5,119.8c-2,0-3.7-0.8-4.9-2.6c-0.6-1-1.1-2.9-1.1-3.7
		c7.2,0.1,12.7-1.2,11.8-6.3c-0.5-2.8-3-5-6.7-5c-6.3,0-9.4,6.6-8.3,12.5c0.8,4.3,3.8,7.9,8.9,7.9c2.6,0,4.9-0.7,6.2-1.5l-1-2.5
		C117.4,119.1,115.8,119.8,113.5,119.8 M112.6,104.7c1.8,0,3.2,0.9,3.5,2.5l0,0c0.6,3-3.4,3.7-8.6,3.7
		C107.7,107.8,109.5,104.7,112.6,104.7 M94.6,119.7c-1.3,0-2-0.7-2.2-1.9c-0.2-1-0.2-2-0.2-3.1l0,0v-4.2c0-1.1-0.1-2.4-0.3-3.3
		c-0.7-3.7-3.5-5.1-5.7-5.1c-2.5,0-4.5,1.2-5.8,3.3c-1-2.4-3-3.3-4.8-3.3c-2.3,0-4.2,1-5.5,2.8c0-0.5-0.1-1-0.2-1.5
		c-0.4-1.8-1.7-3.5-4.4-3.5c-0.9,0-1.8,0.1-2.3,0.3l0.3,2.4c0.4-0.1,0.8-0.1,1.4-0.1c1.2,0,1.8,0.7,2,1.7c0,0.3,0.1,0.5,0.1,0.8
		c0,1,0.1,2,0.1,3.2V122h3.3v-14c0.9-1.9,2.4-3.1,3.9-3.1c2.5,0,3.2,1.7,3.5,3.3c0.1,0.8,0.2,1.5,0.2,2.4V122h3.2v-11.4
		c0-0.7-0.1-1.5-0.1-2.3c0.9-2.1,2.5-3.4,4.1-3.4c2.2,0,3.2,1.3,3.6,3.4c0.2,0.8,0.2,1.8,0.2,2.5v4.2c0,1.4,0,2.5,0.3,3.7
		c0.4,2,1.9,3.8,4.8,3.8c1,0,2-0.1,2.5-0.4l-0.3-2.6C95.8,119.7,95.3,119.7,94.6,119.7 M177.3,111c-2-1-3.1-1.8-3.3-3.3
		c-0.3-1.7,0.9-2.9,2.9-2.9c1.5,0,2.8,0.5,3.5,0.9l0.4-2.5c-0.8-0.5-2.5-1-4.2-1c-4.2,0-6.6,2.6-5.9,6c0.4,2,2,3.7,4.4,5
		c2.3,1.1,3.1,2.1,3.4,3.6c0.3,1.7-0.8,3.2-3.1,3.2c-1.6,0-3.4-0.6-4.4-1.2l-0.5,2.5c1,0.7,3,1.3,5.1,1.3c4.2,0,7-2.3,6.2-6.4
		C181.5,113.9,179.8,112.2,177.3,111"/>
	<path class="st1" d="M204.5,117.2L204.5,117.2L204.5,117.2c-0.5-0.5-1.2-0.8-1.9-0.9c-0.4,0-0.8,0-1.2,0.2l0.1-0.3
		c0.1-1-0.5-2.1-1.3-2.7c-0.5-0.3-0.9-0.5-1.4-0.5c-0.4,0-0.8,0-1.3,0.2c-1.2,0.4-2.1,1.6-2.2,3.5v0.4c0,0,0,0.4,0.1,0.7
		c0.2,1.3,0.4,2.7,0.3,3.7c-0.1,0.7-0.2,1.2-0.6,1.4v0.1l0.1,0.1c0,0,0.3,0,0.8,0.1c1.3,0.1,4,0.2,6.2-0.3c2-0.5,3.1-1.6,3.3-2.9
		v-0.3C205.4,118.6,205.1,117.8,204.5,117.2"/>
	<path class="st1" d="M206.6,96.7c-0.5-1.7-1.5-2.8-3.2-3.5c-0.4-0.2-0.8-0.3-1.3-0.3c-1.6-0.1-3.3,0.4-4.3,1.6
		c-0.3-1.9-2.3-3.6-4.2-3.9c-0.1,0-0.3,0-0.4-0.1c-1.6-0.1-2.9,0.3-4.1,1.5c-0.9,0.8-1.4,2-1.5,3.5c-0.1,1.3,0.1,2.7,0.8,4.3
		c0,0,0.3,0.6,0.6,1c1.8,2.8,3.7,5.9,3.6,7.7c0,0.3-0.1,0.5-0.2,0.7v0.1h0.1l0,0c0,0,6.8-2.3,11.1-5.6c2.1-1.6,3.1-3.5,3.3-5.3
		C206.8,97.9,206.8,97.3,206.6,96.7"/>
</g>
</svg>
