<svg xmlns="http://www.w3.org/2000/svg" version="1.1" id="logo" xmlns:xlink="https://www.w3.org/1999/xlink" x="0px" y="0px" viewBox="0 0 143.6 32.5" style="enable-background:new 0 0 143.6 32.5;" xml:space="preserve"><style type="text/css">.main-logo{fill:#DD5E72;}</style><g><path class="main-logo" d="M78.7,27.9c-1.1,0.6-2.7,1.3-5,1.3c-2,0-3.8-0.8-4.9-2.6c-0.6-1-1.1-2.9-1.1-3.7c7.2,0.1,12.7-1.2,11.8-6.3c-0.5-2.8-3-5-6.7-5c-6.3,0-9.4,6.6-8.3,12.5c0.8,4.3,3.8,7.9,8.9,7.9c2.6,0,4.9-0.7,6.2-1.5L78.7,27.9z M72.9,14.2c1.8,0,3.1,0.9,3.4,2.5l0,0c0.6,3-3.4,3.7-8.6,3.7C67.9,17.3,69.7,14.2,72.9,14.2 M94.4,7.4l-3.3,1.1V12h-2.8l0,2.6h2.8l0,9.9c0,1.4,0,2.5,0.3,3.7c0.4,2,1.9,3.8,4.8,3.8c1,0,2-0.1,2.5-0.4L98.4,29c-0.4,0.1-0.9,0.2-1.5,0.2c-1.3,0-2-0.7-2.2-1.9c-0.2-1-0.2-2-0.2-3.1l0-9.5h4.7l0-2.6h-4.7L94.4,7.4z M50.3,29.3c-2,0-3.7-0.8-4.9-2.6c-0.6-1-1.1-2.9-1.1-3.7c7.2,0.1,12.7-1.2,11.8-6.3c-0.5-2.8-3-5-6.7-5c-6.3,0-9.4,6.6-8.3,12.5C42,28.4,45,32,50.1,32c2.6,0,4.9-0.7,6.2-1.5l-1-2.5C54.2,28.6,52.6,29.3,50.3,29.3 M49.5,14.2c1.8,0,3.2,0.9,3.5,2.5l0,0c0.6,3-3.4,3.7-8.6,3.7C44.5,17.3,46.3,14.2,49.5,14.2M31.5,29.1c-1.3,0-2-0.7-2.2-1.9c-0.2-1-0.2-2-0.2-3.1l0,0l0-4.2c0-1.1-0.1-2.4-0.3-3.3C28,13,25.2,11.6,23,11.6c-2.5,0-4.5,1.2-5.8,3.3c-1-2.4-3-3.3-4.8-3.3c-2.3,0-4.2,1-5.5,2.8c0-0.5-0.1-1-0.2-1.5C6.4,11.1,5,9.5,2.3,9.5C1.4,9.5,0.5,9.6,0,9.8l0.3,2.4C0.7,12.1,1.2,12,1.7,12c1.2,0,1.8,0.7,2,1.7c0,0.3,0.1,0.5,0.1,0.8c0,1,0.1,2,0.1,3.2l0,13.8h3.3v-14c0.9-1.9,2.4-3.1,3.9-3.1c2.5,0,3.2,1.7,3.5,3.3c0.1,0.8,0.2,1.5,0.2,2.4l0,11.4h3.2L18,20c0-0.7-0.1-1.5-0.1-2.3c0.9-2.1,2.5-3.4,4.1-3.4c2.2,0,3.2,1.3,3.6,3.4c0.2,0.8,0.2,1.8,0.2,2.5l0,4.2c0,1.4,0,2.5,0.3,3.7c0.4,2,1.9,3.8,4.8,3.8c1,0,2-0.1,2.5-0.4L33,29C32.6,29.1,32.1,29.1,31.5,29.1 M114.2,20.4c-2-1-3.1-1.8-3.3-3.3c-0.3-1.7,0.9-2.9,2.9-2.9c1.5,0,2.8,0.5,3.5,0.9l0.4-2.5c-0.8-0.5-2.5-1-4.2-1c-4.2,0-6.6,2.6-5.9,6c0.4,2,2,3.7,4.4,5c2.3,1.1,3.1,2.1,3.4,3.6c0.3,1.7-0.8,3.2-3.1,3.2c-1.6,0-3.4-0.6-4.4-1.2l-0.5,2.5c1,0.7,3,1.3,5.1,1.3c4.2,0,7-2.3,6.2-6.4C118.3,23.4,116.6,21.7,114.2,20.4"/><path class="main-logo" d="M141.3,26.6L141.3,26.6L141.3,26.6c-0.5-0.5-1.2-0.8-1.9-0.9c-0.4,0-0.8,0-1.2,0.2l0.1-0.3c0.1-1-0.5-2.1-1.3-2.7c-0.5-0.3-0.9-0.5-1.4-0.5c-0.4,0-0.8,0-1.3,0.2c-1.2,0.4-2.1,1.6-2.2,3.5l0,0.4c0,0,0,0.4,0.1,0.7c0.2,1.3,0.4,2.7,0.3,3.7c-0.1,0.7-0.2,1.2-0.6,1.4l0,0.1l0.1,0.1c0,0,0.3,0,0.8,0.1c1.3,0.1,4,0.2,6.2-0.3c2-0.5,3.1-1.6,3.3-2.9l0-0.3C142.2,28,142,27.3,141.3,26.6"/><path class="main-logo" d="M143.5,6.2c-0.5-1.7-1.5-2.8-3.2-3.5c-0.4-0.2-0.8-0.3-1.3-0.3c-1.6-0.1-3.3,0.4-4.3,1.6c-0.3-1.9-2.3-3.6-4.2-3.9c-0.1,0-0.3,0-0.4-0.1c-1.6-0.1-2.9,0.3-4.1,1.5c-0.9,0.8-1.4,2-1.5,3.5c-0.1,1.3,0.1,2.7,0.8,4.3c0,0,0.3,0.6,0.6,1c1.8,2.8,3.7,5.9,3.6,7.7c0,0.3-0.1,0.5-0.2,0.7v0.1l0.1,0l0,0c0,0,6.8-2.3,11.1-5.6c2.1-1.6,3.1-3.5,3.3-5.3C143.7,7.3,143.6,6.7,143.5,6.2"/></g></svg>